<svg width="20" height="20" viewBox="0 0 20 20" fill="none" xmlns="http://www.w3.org/2000/svg">
<path d="M10 0C4.47656 0 0 4.47656 0 10C0 15.5234 4.47656 20 10 20C15.5234 20 20 15.5234 20 10C20 4.47656 15.5234 0 10 0ZM10 2C14.4102 2 18 5.58984 18 10C18 10.4688 17.9531 10.9297 17.875 11.375C17.6289 11.3203 17.2656 11.2539 16.8437 11.25C16.5312 11.2461 16.1406 11.2969 15.8125 11.3438C15.9258 10.9961 16 10.6133 16 10.2188C16 9.25781 15.5312 8.36328 14.7812 7.625C14.9883 6.85547 15.1914 5.53516 14.6562 5C13.0742 5 12.1992 6.12891 12.1562 6.1875C11.668 6.07031 11.1641 6 10.625 6C9.93359 6 9.27344 6.125 8.65625 6.3125L8.84375 6.15625C8.84375 6.15625 7.96484 4.9375 6.34375 4.9375C5.77734 5.50781 6.03516 6.95313 6.25 7.6875C5.48437 8.41797 5 9.28125 5 10.2188C5 10.5469 5.07812 10.8594 5.15625 11.1563C4.87891 11.125 3.87891 11.0312 3.46875 11.0312C3.10547 11.0312 2.54297 11.1172 2.09375 11.2188C2.03125 10.8203 2 10.4141 2 10C2 5.58984 5.58984 2 10 2ZM3.46875 11.2812C3.86328 11.2812 5.0625 11.4219 5.21875 11.4375C5.23828 11.4922 5.25781 11.543 5.28125 11.5938C4.85156 11.5547 4.01953 11.4961 3.46875 11.5625C3.10156 11.6055 2.63281 11.7383 2.21875 11.8438C2.1875 11.7188 2.14844 11.5977 2.125 11.4688C2.5625 11.375 3.13672 11.2812 3.46875 11.2812ZM16.8437 11.5C17.2422 11.5039 17.6055 11.5703 17.8437 11.625C17.832 11.6914 17.7969 11.7461 17.7812 11.8125C17.5273 11.7539 17.1094 11.668 16.625 11.6563C16.3906 11.6523 16.0156 11.6641 15.6875 11.6875C15.7031 11.6563 15.707 11.625 15.7187 11.5938C16.0586 11.5469 16.4922 11.4961 16.8437 11.5ZM4.09375 11.7812C4.65625 11.7852 5.18359 11.8242 5.40625 11.8438C5.92969 12.8203 6.98828 13.543 8.625 13.8438C8.22266 14.0664 7.86328 14.3789 7.59375 14.75C7.35937 14.7695 7.11328 14.7813 6.875 14.7813C6.17969 14.7813 5.74609 14.1602 5.375 13.625C5 13.0898 4.53906 13.0313 4.28125 13C4.01953 12.9688 3.92969 13.1172 4.0625 13.2188C4.82422 13.8047 5.09766 14.5 5.40625 15.125C5.68359 15.6875 6.26562 16 6.90625 16H7.03125C7.01172 16.1094 7 16.2109 7 16.3125V17.4062C4.69141 16.4727 2.93359 14.5 2.28125 12.0625C2.69141 11.9609 3.15234 11.8555 3.5 11.8125C3.66016 11.793 3.86328 11.7773 4.09375 11.7812ZM16.625 11.9063C17.0742 11.918 17.4727 12.0039 17.7187 12.0625C17.168 14.1328 15.8086 15.8555 14 16.9063V16.3125C14 15.4609 13.3281 14.3672 12.375 13.8438C13.957 13.5547 14.9883 12.8633 15.5312 11.9375C15.9102 11.9102 16.3555 11.8984 16.625 11.9063ZM10.5 16C10.7734 16 11 16.2266 11 16.5V17.9375C10.6719 17.9805 10.3398 18 10 18V16.5C10 16.2266 10.2266 16 10.5 16ZM8.5 17C8.77344 17 9 17.2266 9 17.5V17.9375C8.66406 17.8945 8.32422 17.832 8 17.75V17.5C8 17.2266 8.22656 17 8.5 17ZM12.5 17C12.7422 17 12.9531 17.1758 13 17.4063C12.6758 17.5391 12.3437 17.6602 12 17.75V17.5C12 17.2266 12.2266 17 12.5 17Z" fill="#121212"/>
</svg>
