<svg width="18" height="18" viewBox="0 0 18 18" fill="none" xmlns="http://www.w3.org/2000/svg">
<path d="M2 0C0.895 0 0 0.895 0 2L0 16C0 17.105 0.895 18 2 18L16 18C17.105 18 18 17.105 18 16L18 2C18 0.895 17.105 0 16 0L2 0ZM2 2L16 2L16 16L2 16L2 2ZM4.7793 3.31641C3.9223 3.31641 3.4082 3.83158 3.4082 4.51758C3.4082 5.20358 3.92236 5.7168 4.69336 5.7168C5.55036 5.7168 6.06445 5.20358 6.06445 4.51758C6.06445 3.83158 5.5503 3.31641 4.7793 3.31641ZM3.47656 7L3.47656 14L6 14L6 7H3.47656ZM8.08203 7L8.08203 14H10.6055L10.6055 10.1738C10.6055 9.03483 11.4181 8.87109 11.6621 8.87109C11.9061 8.87109 12.5586 9.11583 12.5586 10.1738L12.5586 14L15 14L15 10.1738C15 7.97683 14.0237 7 12.8027 7C11.5817 7 10.9305 7.40656 10.6055 7.97656V7H8.08203Z" fill="#121212"/>
</svg>
