<svg width="18" height="19" viewBox="0 0 18 19" fill="none" xmlns="http://www.w3.org/2000/svg">
<path d="M2 0C0.897 0 0 0.946833 0 2.11111L0 16.8889C0 18.0532 0.897 19 2 19L16 19C17.103 19 18 18.0532 18 16.8889L18 2.11111C18 0.946833 17.103 0 16 0L2 0ZM2 2.11111L16 2.11111L16.002 16.8889L2 16.8889L2 2.11111ZM11.5664 4.3418C10.1944 4.3418 9.08008 5.51909 9.08008 6.96625C9.08008 7.23753 9.16602 7.41868 9.16602 7.59918C7.10902 7.50945 5.30937 6.42401 4.10937 4.88607C3.85238 5.24812 3.76562 5.69908 3.76562 6.15191C3.76562 7.05652 4.19486 7.78225 4.88086 8.41558C4.45286 8.3248 4.10862 8.23323 3.76562 8.05273C3.76562 9.3194 4.62233 10.3152 5.73633 10.5865C5.47933 10.6773 5.30778 10.6772 5.05078 10.6772C4.96478 10.6772 4.79209 10.5865 4.62109 10.5865C4.96409 11.5819 5.82155 12.3945 6.93555 12.3945C6.07855 13.0279 4.96361 13.481 3.84961 13.481H3.25C4.364 14.2041 5.65049 14.6582 7.02148 14.6582C11.5645 14.6582 14.0508 10.6763 14.0508 7.23839V6.87554C14.4798 6.51349 14.907 6.06159 15.252 5.51693C14.738 5.78926 14.3089 5.87971 13.7949 5.97049C14.3089 5.60949 14.7372 5.15655 14.9082 4.52322C14.4792 4.7945 13.9652 5.06536 13.3652 5.15614C12.9362 4.61359 12.2524 4.3418 11.5664 4.3418Z" fill="#121212"/>
</svg>
