<svg width="50" height="85" viewBox="0 0 50 85" fill="none" xmlns="http://www.w3.org/2000/svg">
<path d="M49.0062 66.8851C49.0062 64.5063 48.4912 62.1508 47.4907 59.9529C46.4903 57.7551 45.0238 55.7581 43.1752 54.0761C41.3264 52.394 39.1317 51.0597 36.7162 50.1493C34.3009 49.239 31.7119 48.7704 29.0974 48.7704V66.8851H49.0062Z" fill="#D72A2A"/>
<path d="M9.77503 73.8524C8.13653 73.8524 6.58343 73.7232 5.11558 73.4652C3.66486 73.1908 2.54686 72.8843 1.76179 72.5455V67.753H7.39415C7.39415 68.2533 7.51357 68.6162 7.75257 68.8422C7.99146 69.0681 8.42669 69.181 9.05822 69.181C9.58736 69.181 9.96279 69.1084 10.1847 68.9632C10.4237 68.8019 10.5431 68.5678 10.5431 68.2613C10.5431 68.0031 10.4321 67.7853 10.2102 67.6078C9.98846 67.4142 9.60438 67.2205 9.05822 67.0269L6.85646 66.3008C4.96195 65.6231 3.5965 64.8244 2.76019 63.9045C1.941 62.9848 1.53135 61.7425 1.53135 60.1773C1.53135 58.2733 2.18846 56.8291 3.50267 55.8448C4.834 54.8444 7.04422 54.3442 10.1335 54.3442C11.6184 54.3442 13.0094 54.4894 14.3065 54.7798C15.6207 55.0542 16.6789 55.4253 17.481 55.8933V60.2257H12.3609C12.3609 59.4189 11.8317 59.0155 10.7735 59.0155C10.2615 59.0155 9.89453 59.0801 9.67263 59.2091C9.46786 59.322 9.36548 59.5318 9.36548 59.8385C9.36548 60.1127 9.48488 60.3304 9.72388 60.4919C9.97989 60.6533 10.3895 60.8226 10.9527 61.0002L13.1801 61.7263C14.9893 62.3072 16.3035 63.0656 17.1227 64.0014C17.959 64.9211 18.3772 66.1314 18.3772 67.6319C18.3772 69.6813 17.6433 71.2303 16.1754 72.2791C14.7247 73.328 12.5912 73.8524 9.77503 73.8524Z" fill="white"/>
<path d="M27.566 69.7401H28.8712V58.4565H27.566V54.3442H39.0257C41.2707 54.3442 42.9848 54.8123 44.1683 55.7484C45.3515 56.6678 45.9433 58.164 45.9433 60.2368C45.9433 62.3096 45.3515 63.8141 44.1683 64.7503C42.9848 65.6696 41.2707 66.1293 39.0257 66.1293H36.1803V69.7401H38.6864V73.8524H27.566V69.7401ZM37.0679 62.5687C38.0772 62.5687 38.5821 62.0338 38.5821 60.9639V60.0613C38.5821 59.5097 38.4514 59.1083 38.1903 58.8577C37.9467 58.5902 37.5726 58.4565 37.0679 58.4565H36.1803V62.5687H37.0679Z" fill="white"/>
<path d="M22.9717 27.8688C24.6633 27.8688 26.0347 26.6211 26.0347 25.082C26.0347 23.5428 24.6633 22.295 22.9717 22.295C21.2802 22.295 19.9088 23.5428 19.9088 25.082C19.9088 26.6211 21.2802 27.8688 22.9717 27.8688Z" fill="#D72A2A"/>
<path d="M22.9717 19.5083C24.6633 19.5083 26.0347 18.2605 26.0347 16.7214C26.0347 15.1822 24.6633 13.9345 22.9717 13.9345C21.2802 13.9345 19.9088 15.1822 19.9088 16.7214C19.9088 18.2605 21.2802 19.5083 22.9717 19.5083Z" fill="white"/>
<path d="M22.9717 36.2296C24.6633 36.2296 26.0347 34.9819 26.0347 33.4427C26.0347 31.9036 24.6633 30.6558 22.9717 30.6558C21.2802 30.6558 19.9088 31.9036 19.9088 33.4427C19.9088 34.9819 21.2802 36.2296 22.9717 36.2296Z" fill="white"/>
<path fill-rule="evenodd" clip-rule="evenodd" d="M0 26.7128V32.8127L8.71514 38.3831L10.2096 35.5174L13.1987 41.2488L22.7864 47.3769L45.9433 32.5754V26.4753L22.7864 41.2768L0 26.7128Z" fill="white"/>
<path fill-rule="evenodd" clip-rule="evenodd" d="M0 20.6644V14.5643L22.7864 0L34.9055 7.74639L37.7755 13.2498L39.2107 10.4982L45.9433 14.8016V20.9017L22.7864 6.10004L0 20.6644Z" fill="white"/>
</svg>
