<svg width="58" height="317" viewBox="0 0 58 320" fill="none" xmlns="http://www.w3.org/2000/svg">
<path d="M18.7459 316.305C25.7432 315.208 29.3194 308.12 30.3716 295.629C34.7162 244.036 40.1092 156.412 36.8937 95.0714L21.6253 96.058C22.9439 157.478 21.1508 244.465 18.7467 316.305L18.7459 316.305ZM37.0106 85.8269L37.167 73.4073L21.0054 74.4513C21.1539 78.4805 21.2852 82.6113 21.4005 86.836L37.0106 85.8269ZM57.7529 63.8659L57.831 54.6236L0.441243 58.3322L0.36313 67.5746L57.7529 63.8659ZM37.2115 46.5987L37.5827 2.68533C33.3189 -1.07355 25.6456 -0.762745 21.1856 3.74531L20.8144 47.6579L26.7105 47.2766C24.2078 46.8552 22.5455 45.4175 22.5568 43.684C22.5764 41.4159 25.4163 39.3944 28.9008 39.1689C25.4166 39.394 22.6067 37.7373 22.6263 35.4692C22.6458 33.2003 25.4854 31.1785 28.9706 30.9537C25.485 31.1789 22.6766 29.5221 22.6961 27.254C22.7149 24.9852 25.5552 22.9633 29.04 22.7388C25.5552 22.9633 22.7464 21.3069 22.7652 19.0388C22.7847 16.77 25.6246 14.7478 29.1095 14.5233C25.6246 14.7478 22.8154 13.0917 22.8346 10.8233C22.8542 8.5544 25.6937 6.53259 29.1789 6.30773C32.663 6.08258 35.4726 7.7397 35.4534 10.0074C35.4335 12.2759 32.5932 14.2978 29.1091 14.5229C32.5932 14.2978 35.402 15.9542 35.3832 18.2223C35.364 20.4915 32.5242 22.513 29.0389 22.7378C32.5245 22.5126 35.333 24.1694 35.3138 26.4379C35.2942 28.7067 32.4547 30.7285 28.9699 30.953C32.4547 30.7285 35.2635 32.385 35.2447 34.653C35.2252 36.9219 32.3853 38.9441 28.9004 39.1685C32.3853 38.9441 35.1941 40.6005 35.1753 42.8686C35.1581 44.6017 33.4714 46.2554 30.9613 47.0019L37.2115 46.5987Z" fill="black"/>
</svg>
