<svg width="48" height="48" viewBox="0 0 48 48" fill="none" xmlns="http://www.w3.org/2000/svg">
<path d="M38.46 30.52L33.38 29.94C32.16 29.8 30.96 30.22 30.1 31.08L26.42 34.76C20.76 31.88 16.12 27.26 13.24 21.58L16.94 17.88C17.8 17.02 18.22 15.82 18.08 14.6L17.5 9.56002C17.26 7.54002 15.56 6.02002 13.52 6.02002H10.06C7.79996 6.02002 5.91996 7.90002 6.05996 10.16C7.11996 27.24 20.78 40.88 37.84 41.94C40.1 42.08 41.98 40.2 41.98 37.94V34.48C42 32.46 40.48 30.76 38.46 30.52V30.52Z" fill="white"/>
</svg>
