<svg width="115" height="115" viewBox="0 0 115 115" fill="none" xmlns="http://www.w3.org/2000/svg">
<path d="M57.5 0C25.7783 0 0 25.7783 0 57.5C0 89.2217 25.7783 115 57.5 115C89.2217 115 115 89.2217 115 57.5C115 25.7783 89.2217 0 57.5 0ZM57.5 5C86.5183 5 110 28.4817 110 57.5C110 57.6784 109.987 57.8542 109.985 58.0322C108.386 57.8846 106.539 57.7444 104.189 57.6611C100.868 57.5433 96.6806 57.5775 91.9336 57.8125C92.1096 56.5866 92.233 55.3434 92.2363 54.0674C92.4784 49.3858 90.9063 45.0062 88.3496 41.1377C88.9673 39.0034 89.6919 36.288 89.873 33.208C90.0795 29.6973 89.7765 25.8044 86.958 23.1738L86.2354 22.5H85.249C78.5413 22.5 73.9501 25.308 71.1426 27.5342C67.0888 25.9651 62.5306 25 57.5 25C52.4409 25 47.8388 25.9785 43.6182 27.5439C40.8123 25.3167 36.217 22.5 29.502 22.5H28.5205L27.7979 23.1689C25.0524 25.7183 24.7994 29.5044 24.9707 32.998C25.1217 36.0788 25.8043 38.8804 26.4111 41.1182C23.8112 45.0621 22.251 49.555 22.251 53.999C22.251 55.2781 22.3699 56.5252 22.5439 57.7539C18.0295 57.5445 14.0052 57.5042 10.8105 57.6172C8.46129 57.7003 6.61361 57.8393 5.01465 57.9883C5.01316 57.8249 5 57.6637 5 57.5C5 28.4817 28.4817 5 57.5 5ZM30.9912 27.8271C36.0352 28.3051 39.83 30.5574 41.5869 32.1191L42.7588 33.1543L44.2041 32.5635C48.1577 30.9355 52.5675 30 57.5 30C62.4325 30 66.8435 30.9402 70.498 32.5391L71.9629 33.1836L73.1592 32.1191C74.9167 30.5569 78.718 28.3039 83.7646 27.8271C84.4356 28.9396 85.0187 30.5217 84.8779 32.915C84.7094 35.7793 83.9433 38.8991 83.3643 40.752L82.9883 41.958L83.7354 42.9785C86.209 46.3517 87.4703 50.0023 87.2559 53.8623L87.251 53.9307V53.999C87.251 60.2377 85.0044 65.2308 80.2197 68.9307C75.4351 72.6305 67.8817 75 57.251 75C46.6203 75 39.0621 72.6305 34.2773 68.9307C29.4926 65.2308 27.251 60.2377 27.251 53.999C27.251 50.3373 28.5733 46.309 31.0156 42.9785L31.748 41.9824L31.3965 40.7959C30.8172 38.8262 30.1071 35.6353 29.9658 32.7539C29.8483 30.3573 30.4156 28.8426 30.9912 27.8271ZM17.2119 60.0537C18.9786 60.0763 21.0036 60.1716 23.0322 60.2734C23.226 61.0529 23.4471 61.8197 23.7158 62.5684C15.4474 62.7427 9.26183 63.5742 5.44922 64.2871C5.28802 63.0362 5.15962 61.7751 5.08789 60.498C7.90551 60.2307 11.8775 59.9856 17.2119 60.0537ZM97.7881 60.0928C103.119 60.0251 107.089 60.2704 109.907 60.5371C109.836 61.7958 109.709 63.0392 109.551 64.2725C105.602 63.548 99.2492 62.7167 90.7666 62.583C91.0299 61.8492 91.2491 61.0955 91.4404 60.332C93.6782 60.2121 95.8614 60.1172 97.7881 60.0928ZM24.7803 65.0488C26.2721 68.0383 28.4038 70.7075 31.2207 72.8857C35.0721 75.8638 40.0791 77.9446 46.1914 79.0576C45.3917 79.8792 44.6644 80.7815 44.0186 81.7334L43.8672 81.6016C43.8809 81.5858 42.6244 82.2147 40.7471 82.3828C38.8698 82.5509 36.554 82.5 34.502 82.5C31.4395 82.5 30.0905 81.053 27.9346 78.418C26.7407 76.8089 25.2853 75.5058 23.8721 74.5166C22.4251 73.5037 21.1906 72.7888 19.6631 72.5342L19.458 72.5H19.248C18.0814 72.5 16.9525 72.5845 15.8984 73.7891C15.3714 74.3914 15.0082 75.5064 15.2441 76.4502C15.4801 77.394 16.0771 77.974 16.6113 78.3301C20.0281 80.608 20.632 85.1163 22.7734 89.126C24.7732 93.1108 29.0892 95 33.501 95H40V107.007C22.4195 100.801 9.1617 85.5115 5.83008 66.7578C9.65733 66.0369 16.0663 65.1703 24.7803 65.0488ZM89.707 65.0684C98.6138 65.1446 105.203 66.0102 109.175 66.7432C105.848 85.5038 92.5852 100.8 75 107.007V93.999C75 90.0376 73.6991 85.6693 71.4355 82.0264C70.7483 80.9203 69.9399 79.8743 69.0381 78.9355C74.8261 77.7921 79.5809 75.7471 83.2812 72.8857C86.0921 70.7123 88.219 68.0511 89.707 65.0684ZM54.248 80.249H61.25C63.2821 80.249 65.4511 81.8685 67.1875 84.6631C68.9239 87.4577 70 91.2104 70 93.999V108.496C65.9935 109.473 61.8095 110 57.5 110C53.1905 110 49.0065 109.473 45 108.496V93.999C45 91.2722 46.1696 87.5283 48.0225 84.7217C49.8754 81.9151 52.216 80.249 54.248 80.249ZM25.7715 83.2031C27.9359 85.4481 30.5563 87.5 34.502 87.5C36.4499 87.5 38.8812 87.5702 41.1914 87.3633C41.1996 87.3625 41.2076 87.3591 41.2158 87.3584C40.9115 88.2334 40.6844 89.1138 40.4932 90H33.501C30.4176 90 28.2394 88.8861 27.2363 86.8799L27.2168 86.8457L27.2021 86.8164C26.7911 86.053 26.2516 84.5265 25.7715 83.2031Z" fill="black"/>
</svg>
