<svg width="85" height="85" viewBox="0 0 85 85" fill="none" xmlns="http://www.w3.org/2000/svg">
<path d="M15.0521 8.85425C14.6854 8.85408 14.3226 8.92985 13.9866 9.07677C13.6506 9.22369 13.3487 9.43859 13.0998 9.70792C12.8509 9.97726 12.6605 10.2952 12.5406 10.6418C12.4206 10.9883 12.3737 11.3559 12.4028 11.7215L16.9405 69.028C16.9804 69.5382 17.1668 70.026 17.4772 70.4328C17.7877 70.8396 18.209 71.148 18.6906 71.3211L41.6042 79.5319C42.1834 79.7394 42.8166 79.7394 43.3958 79.5319L66.3094 71.3211C66.791 71.148 67.2124 70.8396 67.5228 70.4328C67.8333 70.026 68.0197 69.5382 68.0595 69.028L72.5973 11.7215C72.6264 11.3559 72.5795 10.9883 72.4595 10.6418C72.3395 10.2952 72.1491 9.97726 71.9002 9.70792C71.6514 9.43859 71.3494 9.22369 71.0134 9.07677C70.6774 8.92985 70.3147 8.85408 69.9479 8.85425H15.0521ZM17.9297 14.1667H67.0703L62.8992 66.8975L42.5 74.2091L22.1009 66.8975L17.9297 14.1667ZM26.5279 23.0209L28.1224 44.2709H51.8661L51.036 55.5704L42.5173 58.2958L34.2823 55.5876L33.8395 49.5834H28.5098L29.2534 59.5167L42.4827 63.8919L56.0649 59.534L57.5867 38.9584H33.0441L32.2659 28.3334H58.0121L58.4202 23.0209H26.5279Z" fill="black"/>
</svg>
