<svg width="105" height="106" viewBox="0 0 105 106" fill="none" xmlns="http://www.w3.org/2000/svg">
<path d="M6.66992 0.919922C3.01758 0.919922 0 3.91336 0 7.53649V98.4634C0 102.086 3.01758 105.08 6.66992 105.08H98.3301C101.982 105.08 105 102.096 105 98.4634V7.53649C105 3.91336 101.992 0.919922 98.3301 0.919922H6.66992ZM6.66992 5.87992H98.3301C99.2578 5.87992 100 6.61617 100 7.53649V98.4634C100 99.3837 99.2578 100.12 98.3301 100.12H6.66992C5.74219 100.12 5 99.3837 5 98.4634V7.53649C5 6.61617 5.74219 5.87992 6.66992 5.87992ZM47.5 48.0399V79.224C47.5 84.0096 45.6738 85.2399 42.5 85.2399C39.1797 85.2399 36.875 83.1862 35.3516 80.5221L27.5 85.2399C29.7754 90.0159 35.3516 95.1599 43.0859 95.1599C51.6406 95.1599 57.5 90.6456 57.5 80.7352V48.0399H47.5ZM78.6328 48.0399C70.1172 48.0399 64.6582 53.4455 64.6582 60.5465C64.6582 68.248 69.2383 71.8905 76.123 74.7968L78.5059 75.814C82.8516 77.7031 85 78.8559 85 82.1012C85 84.804 82.9297 86.7609 78.9746 86.7609C74.2676 86.7609 72.041 83.593 70 80.2799L62.5 85.2399C65.3027 90.7327 70.332 95.1599 79.1894 95.1599C88.2519 95.1599 95 90.4905 95 81.9752C95 74.0702 90.4297 70.5537 82.3144 67.1049L79.9316 66.0974C75.8398 64.3343 74.0625 63.1912 74.0625 60.3527C74.0625 58.0568 75.8398 56.2937 78.6328 56.2937C81.3769 56.2937 83.1348 57.4465 84.7656 60.3527L92.1973 55.6252C89.0625 50.1324 84.6973 48.0399 78.6328 48.0399Z" fill="black"/>
</svg>
