<svg width="101" height="101" viewBox="0 0 101 101" fill="none" xmlns="http://www.w3.org/2000/svg">
<path fill-rule="evenodd" clip-rule="evenodd" d="M94.9478 18.3114L94.9559 18.3805C95.5297 23.2862 95.8153 28.4381 95.8153 33.5825C95.8153 74.7355 62.0166 91.3901 51.7731 95.3411L50.4578 95.8485L49.1563 95.313C39.0069 91.1372 5.18467 74.4927 5.18467 33.5825C5.18467 28.4513 5.46887 23.3126 6.03969 18.4182C6.44887 13.8716 9.98176 10.3579 14.6203 9.30401C23.1586 7.25584 36.362 4.6662 50.5 4.6662C64.638 4.6662 77.8414 7.25584 86.3796 9.304C91.2093 10.4013 94.2146 14.0218 94.9361 18.2427L94.9478 18.3114ZM85.5694 12.12C77.1528 10.1 64.2472 7.575 50.5 7.575C36.7528 7.575 23.8472 10.1 15.4306 12.12C12.0639 12.8775 9.53889 15.4025 9.25833 18.685C8.69722 23.4825 8.41667 28.5325 8.41667 33.5825C8.41667 72.72 40.6806 88.6275 50.5 92.6675C60.3194 88.88 92.5833 72.9725 92.5833 33.5825C92.5833 28.5325 92.3028 23.4825 91.7417 18.685C91.1806 15.4025 88.9361 12.8775 85.5694 12.12ZM14.0316 7.60514L14.0019 7.61211C8.85827 8.81975 4.78874 13.1032 4.34306 17.9166L4.3385 17.9658L4.33209 18.0149C3.7791 22.2452 3.232 27.6777 3.232 33.5825C3.232 58.4923 15.3371 74.6083 27.4303 84.555C33.501 89.5481 39.5781 92.9897 44.1324 95.1795C46.4067 96.2731 48.2927 97.0504 49.5962 97.5499C49.9393 97.6814 50.2417 97.7935 50.5 97.887C50.7583 97.7935 51.0608 97.6814 51.4038 97.5499C52.7073 97.0504 54.5933 96.2731 56.8676 95.1795C61.4219 92.9897 67.499 89.5481 73.5697 84.555C85.6629 74.6083 97.768 58.4923 97.768 33.5825C97.768 27.4303 97.2219 22.2535 96.6686 18.0202C95.9781 12.8457 92.1172 8.8272 86.7495 7.61945L86.6905 7.60619L86.6322 7.59096C78.1497 5.37456 64.7121 2.9088 50.5 2.9088C36.2911 2.9088 22.8484 5.37338 14.0612 7.59766L14.0316 7.60514ZM99.8778 17.675C100.439 21.9675 101 27.27 101 33.5825C101 85.345 50.5 101 50.5 101C50.5 101 0 85.345 0 33.5825C0 27.5225 0.561111 21.9675 1.12222 17.675C1.68333 11.615 6.73333 6.3125 13.1861 4.7975C22.1639 2.525 35.9111 0 50.5 0C65.0889 0 78.8361 2.525 87.5333 4.7975C94.2667 6.3125 99.0361 11.3625 99.8778 17.675Z" fill="black"/>
<path d="M47.6944 60.6H53.3055V80.8H47.6944V60.6Z" fill="black"/>
<path d="M50.5 15.15C50.5 15.15 33.6667 27.775 33.6667 47.975C33.6667 61.105 42.925 69.4375 47.6944 73.225L50.5 65.65L53.3056 73.225C58.075 69.4375 67.3333 61.105 67.3333 47.975C67.3333 27.775 50.5 15.15 50.5 15.15Z" fill="black"/>
</svg>
