<svg width="99" height="113" viewBox="0 0 99 113" fill="none" xmlns="http://www.w3.org/2000/svg">
<path d="M49.5182 112.279C48.0234 112.279 46.5416 111.888 45.2317 111.133L31.5859 103.052C29.5469 101.912 30.5416 101.508 31.2135 101.276C33.9323 100.326 34.4817 100.11 37.3828 98.4611C37.6875 98.2866 38.0859 98.3491 38.3984 98.534L48.8828 104.755C49.2604 104.961 49.7995 104.961 50.1484 104.755L91.026 81.159C91.4036 80.9429 91.651 80.5054 91.651 80.0548V32.8856C91.651 32.4142 91.4062 31.995 91.0182 31.7606L50.1588 8.18245C49.7812 7.9585 49.2786 7.9585 48.901 8.18245L8.04685 31.758C7.65102 31.9819 7.39842 32.422 7.39842 32.8726V80.0444C7.39842 80.495 7.64321 80.9246 8.03383 81.1382L19.2291 87.6043C25.3073 90.6434 29.0208 87.0627 29.0208 83.4611V36.9064C29.0208 36.2424 29.5416 35.7293 30.2083 35.7293H35.3854C36.0312 35.7293 36.5625 36.2397 36.5625 36.9064V83.4845C36.5625 91.5887 32.1432 96.245 24.4583 96.245C22.0937 96.245 20.2318 96.245 15.0338 93.6877L4.30988 87.508C1.65883 85.9715 0.020813 83.1043 0.020813 80.047V32.8752C0.020813 29.8049 1.65883 26.9403 4.30727 25.4246L45.2291 1.81787C47.8177 0.354329 51.2552 0.354329 53.8255 1.81787L94.6953 25.4351C97.3307 26.9585 98.9791 29.8153 98.9791 32.8856V80.0575C98.9791 83.1174 97.3307 85.9715 94.6927 87.508L53.8229 111.112C52.513 111.87 51.0286 112.258 49.5156 112.258" fill="black"/>
<path d="M62.1458 79.7736C44.2604 79.7736 40.5104 71.5627 40.5104 64.6772C40.5104 64.0236 41.039 63.5002 41.6953 63.5002H46.9765C47.5599 63.5002 48.0521 63.9246 48.1432 64.5002C48.9401 69.8804 51.3151 72.5939 62.1302 72.5939C70.7448 72.5939 74.4088 70.6486 74.4088 66.0783C74.4088 63.4481 73.3646 61.495 59.9818 60.1851C48.7864 59.0809 41.8698 56.6147 41.8698 47.6616C41.8698 39.4142 48.8281 34.5028 60.4817 34.5028C73.5703 34.5028 80.0573 39.047 80.875 48.8075C80.9062 49.146 80.7838 49.4715 80.5573 49.7189C80.3333 49.9533 80.0156 50.0965 79.6875 50.0965H74.3776C73.8255 50.0965 73.3437 49.7085 73.2318 49.1746C71.9531 43.5158 68.862 41.7059 60.4609 41.7059C51.0573 41.7059 49.9635 44.9793 49.9635 47.4351C49.9635 50.4116 51.2526 51.2814 63.9401 52.9611C76.5052 54.6278 82.4713 56.9819 82.4713 65.8127C82.4713 74.7137 75.0416 79.8205 62.0885 79.8205" fill="black"/>
</svg>
