<svg width="125" height="112" viewBox="0 0 125 112" fill="none" xmlns="http://www.w3.org/2000/svg">
<path d="M62.4792 66.8491C68.6406 66.8491 73.6354 61.8543 73.6354 55.6929C73.6354 49.5314 68.6406 44.5366 62.4792 44.5366C56.3177 44.5366 51.3229 49.5314 51.3229 55.6929C51.3229 61.8543 56.3177 66.8491 62.4792 66.8491Z" fill="black"/>
<path d="M62.478 35.6728C76.8947 35.6728 90.5897 37.7053 101.001 41.2896C112.565 45.2704 119.618 51.1558 119.618 55.6906C119.618 60.521 112 66.792 99.6319 70.8901C89.7851 74.1526 76.6107 75.9308 62.478 75.9308C47.6313 75.9308 34.3082 74.1872 24.5757 70.8605C18.4827 68.7779 13.4509 66.0714 10.0019 63.1178C6.90275 60.4637 5.33808 57.8286 5.33808 55.6906C5.33808 51.1405 12.1216 45.3369 23.4354 41.3923C33.8513 37.7611 47.8816 35.6728 62.478 35.6728ZM62.478 30.3347C47.3145 30.3347 32.6966 32.5105 21.6781 36.3518C8.44867 40.9642 0 48.1926 0 55.6906C0 63.4347 9.0698 71.2018 22.8492 75.9117C33.2066 79.452 47.0898 81.2689 62.478 81.2689C77.1435 81.2689 90.8722 79.4158 101.311 75.9573C115.636 71.211 124.956 63.5381 124.956 55.6906C124.956 48.1655 116.235 40.8883 102.739 36.2423C91.7337 32.4536 77.4569 30.3347 62.478 30.3347ZM45.0408 45.7459C52.2429 33.2573 60.8453 22.4091 69.1516 15.1804C78.3767 7.15219 86.9988 3.98223 90.9271 6.24759C95.1116 8.66064 96.7386 18.3925 94.1096 31.154C92.0165 41.3139 86.9754 53.6149 79.9152 65.8576C72.4982 78.719 64.3321 89.3891 56.588 96.1583C51.74 100.396 46.8816 103.403 42.6001 104.915C38.7526 106.274 35.6882 106.313 33.836 105.245C29.8945 102.972 28.2559 94.1961 30.491 82.4247C32.5486 71.5879 37.7485 58.3909 45.0408 45.7459ZM40.4165 43.0792C32.841 56.2154 27.4232 69.9651 25.2466 81.4289C22.6331 95.1933 24.674 106.123 31.1693 109.869C37.878 113.738 49.1375 109.761 60.1011 100.177C68.3425 92.9736 76.852 81.8548 84.5394 68.5244C91.8658 55.8201 97.119 43.0016 99.3379 32.2311C102.383 17.4509 100.392 5.54363 93.5938 1.62331C87.075 -2.13587 76.4142 1.78365 65.6473 11.1536C56.8673 18.7945 47.8995 30.1036 40.4165 43.0792ZM45.0574 65.8867C37.8346 53.4101 32.7322 40.5394 30.6178 29.733C28.2695 17.7314 29.8292 8.67832 33.7538 6.40639C37.9343 3.98619 47.1782 7.43681 56.9211 16.0879C64.6781 22.9751 72.8175 33.4857 79.8983 45.7169C87.3368 58.5657 92.5029 70.9694 94.5001 81.0593C95.7504 87.376 95.9291 93.0866 95.1009 97.5512C94.3566 101.563 92.86 104.237 91.0095 105.309C87.0717 107.588 78.6504 104.625 69.5683 96.81C61.2075 89.6153 52.3709 78.5194 45.0574 65.8867ZM40.4377 68.5612C48.0353 81.6846 57.2419 93.2453 66.0865 100.856C76.7062 109.995 87.1948 113.685 93.684 109.928C100.386 106.048 102.564 94.3077 99.7366 80.0228C97.6111 69.2851 92.2278 56.3598 84.5181 43.0424C77.1703 30.3501 68.6885 19.3973 60.4654 12.0962C49.1813 2.07674 37.8709 -2.14525 31.0793 1.78661C24.5668 5.5567 22.6383 16.7505 25.3791 30.758C27.614 42.1806 32.9331 55.598 40.4377 68.5612Z" fill="black"/>
<path d="M62.4792 66.8491C68.6406 66.8491 73.6354 61.8543 73.6354 55.6929C73.6354 49.5314 68.6406 44.5366 62.4792 44.5366C56.3177 44.5366 51.3229 49.5314 51.3229 55.6929C51.3229 61.8543 56.3177 66.8491 62.4792 66.8491Z" stroke="black"/>
<path d="M62.478 35.6728C76.8947 35.6728 90.5897 37.7053 101.001 41.2896C112.565 45.2704 119.618 51.1558 119.618 55.6906C119.618 60.521 112 66.792 99.6319 70.8901C89.7851 74.1526 76.6107 75.9308 62.478 75.9308C47.6313 75.9308 34.3082 74.1872 24.5757 70.8605C18.4827 68.7779 13.4509 66.0714 10.0019 63.1178C6.90275 60.4637 5.33808 57.8286 5.33808 55.6906C5.33808 51.1405 12.1216 45.3369 23.4354 41.3923C33.8513 37.7611 47.8816 35.6728 62.478 35.6728ZM62.478 30.3347C47.3145 30.3347 32.6966 32.5105 21.6781 36.3518C8.44867 40.9642 0 48.1926 0 55.6906C0 63.4347 9.0698 71.2018 22.8492 75.9117C33.2066 79.452 47.0898 81.2689 62.478 81.2689C77.1435 81.2689 90.8722 79.4158 101.311 75.9573C115.636 71.211 124.956 63.5381 124.956 55.6906C124.956 48.1655 116.235 40.8883 102.739 36.2423C91.7337 32.4536 77.4569 30.3347 62.478 30.3347ZM45.0408 45.7459C52.2429 33.2573 60.8453 22.4091 69.1516 15.1804C78.3767 7.15219 86.9988 3.98223 90.9271 6.24759C95.1116 8.66064 96.7386 18.3925 94.1096 31.154C92.0165 41.3139 86.9754 53.6149 79.9152 65.8576C72.4982 78.719 64.3321 89.3891 56.588 96.1583C51.74 100.396 46.8816 103.403 42.6001 104.915C38.7526 106.274 35.6882 106.313 33.836 105.245C29.8945 102.972 28.2559 94.1961 30.491 82.4247C32.5486 71.5879 37.7485 58.3909 45.0408 45.7459ZM40.4165 43.0792C32.841 56.2154 27.4232 69.9651 25.2466 81.4289C22.6331 95.1933 24.674 106.123 31.1693 109.869C37.878 113.738 49.1375 109.761 60.1011 100.177C68.3425 92.9736 76.852 81.8548 84.5394 68.5244C91.8658 55.8201 97.119 43.0016 99.3379 32.2311C102.383 17.4509 100.392 5.54363 93.5938 1.62331C87.075 -2.13587 76.4142 1.78365 65.6473 11.1536C56.8673 18.7945 47.8995 30.1036 40.4165 43.0792ZM45.0574 65.8867C37.8346 53.4101 32.7322 40.5394 30.6178 29.733C28.2695 17.7314 29.8292 8.67832 33.7538 6.40639C37.9343 3.98619 47.1782 7.43681 56.9211 16.0879C64.6781 22.9751 72.8175 33.4857 79.8983 45.7169C87.3368 58.5657 92.5029 70.9694 94.5001 81.0593C95.7504 87.376 95.9291 93.0866 95.1009 97.5512C94.3566 101.563 92.86 104.237 91.0095 105.309C87.0717 107.588 78.6504 104.625 69.5683 96.81C61.2075 89.6153 52.3709 78.5194 45.0574 65.8867ZM40.4377 68.5612C48.0353 81.6846 57.2419 93.2453 66.0865 100.856C76.7062 109.995 87.1948 113.685 93.684 109.928C100.386 106.048 102.564 94.3077 99.7366 80.0228C97.6111 69.2851 92.2278 56.3598 84.5181 43.0424C77.1703 30.3501 68.6885 19.3973 60.4654 12.0962C49.1813 2.07674 37.8709 -2.14525 31.0793 1.78661C24.5668 5.5567 22.6383 16.7505 25.3791 30.758C27.614 42.1806 32.9331 55.598 40.4377 68.5612Z" stroke="black"/>
</svg>
